# xmcd CD database file
#
# Track frame offsets:
#	150
#	26737
#	48616
#	75202
#
# Disc length: 1293 seconds
#
# Revision: 11
# Processed by: cddbd v1.5PL3 Copyright (c) Steve Scherf et al.
# Submitted via: CDex 1.51
#
DISCID=25050b04
DTITLE=Vlidge - ONE SENSE
DYEAR=2003
DGENRE=Pop
TTITLE0=ONE SENSE
TTITLE1=summer song
TTITLE2=ONE SENSE (Instrumental)
TTITLE3=summer song (Instrumental)
EXTD=YEAR: 2003
EXTT0=
EXTT1=
EXTT2=
EXTT3=
PLAYORDER=
